<svg version="1.1" xmlns="http://www.w3.org/2000/svg" viewBox="-30.962571260743633 -39.02360865876236 61.92514252148727 78.04721731752471" fill="none" stroke="black" stroke-width="0.6%" vector-effect="non-scaling-stroke">
    <path d="M -29.96257 12.57971 L -29.96257 -0.09482 L 0 0 L 29.96257 -37.92879 L 0 -38.02361 L -29.96257 -0.09482" />
    <path d="M 0 12.67454 L 0 0" />
    <path d="M -4.99376 12.65873 L 0 12.67454 L 29.96257 -25.25425 L 29.96257 -37.92879" />
    <path d="M -4.99376 27.32926 L -4.99376 12.65873" />
    <path d="M -2.99626 27.33558 L -4.99376 27.32926 L 24.96881 -10.59953 L 24.96881 -18.93279" />
    <path d="M -2.99626 25.33959 L -2.99626 27.33558" />
    <path d="M -2.99626 25.33959 L 0 25.34907 L 29.96257 -12.57971 L 26.96631 -12.5892" />
    <path d="M 0 38.02361 L 0 25.34907" />
    <path d="M -29.96257 37.92879 L 0 38.02361 L 29.96257 0.09482 L 29.96257 -12.57971" />
    <path d="M -29.96257 37.92879 L -29.96257 25.25425 L -26.96631 25.26373 L -24.96881 22.73515" />
    <path d="M -26.96631 27.25972 L -26.96631 25.26373" />
    <path d="M -24.96881 27.26604 L -26.96631 27.25972 L -24.96881 24.73114" />
    <path d="M -24.96881 12.59552 L -24.96881 27.26604" />
    <path d="M -29.96257 12.57971 L -24.96881 12.59552" />
    <path d="M 25.39347 -10.59818 L 24.96881 -10.59953" />
    <path d="M -2.99626 25.33959 L 26.96631 -12.5892" />
    <path d="M -24.96881 18.93279 L -29.96257 25.25425" />
</svg>